<svg xmlns="http://www.w3.org/2000/svg" width="256" height="216.125" viewBox="0 0 256 216.125">
  <g transform="translate(0 .5186758)">
    <path fill="rgb(178,139,103)" fill-rule="evenodd" d="M6.8242693 155.20285034c7.98829555-3.97201538 19.71695804-11.24031067 21.5401411-13.91906738 3.72934723-5.47943115 25.30272865-63.74786377 25.30272865-63.74786377l17.71178437 2.57221985s-28.51804352 61.87428284-30.57772065 65.44541931c-2.67558288 4.6389923-.30898285 12.25801086 1.295784 17.42436218.24826813.79924011.47829437 1.53979492.66860199 2.20152283-3.37097168.97343445-4.65338135-.95603943-6.00537872-2.99021912-1.5270443-2.29754638-3.14286232-4.72865295-7.95711136-3.26142883-1.85998535.56686401-3.6469841 1.29496765-5.39286804 2.00630188-6.03061104 2.45713806-11.570673 4.71440125-17.93378544-.56382751-1.00878859-.836792-1.85856843-3.5730896 1.3478241-5.16741944zM190.35887336 88.6100235l30.18663025 25.59165192c8.46754455 2.93228912 15.4753418 6.33389282 21.02340698 10.20483398 1.2806549 1.3420105 2.75727844 3.98168945-2.88482666 3.14880371-5.6421051-.832901-11.61419678-1.45523071-12.5322113.42487335-.40197754.82326508-.00076294 1.7757187.4291687 2.7963028.55187988 1.3100891 1.15103149 2.73240661.15904235 4.1376648-1.17651367 1.66664123-5.85462951-3.0458069-14.0343933-14.13737489l-30.59698487-15.27013397 8.25016785-16.8966217z"/>
    <path fill="rgb(197,207,214)" fill-rule="evenodd" d="M127.6949954 5.33202858l10.97493636-3.62939221c14.88754145 37.19023143 37.0905734 73.17368846 74.18720244 103.56755203l-9.17353002 15.82659214c-32.60266862-19.2051257-63.46507532-34.12400926-75.98861043-62.94208946-4.20322213-9.67209269-.34294615-41.25772241.00000165-52.8226625z"/>
    <path fill="rgb(50,51,55)" fill-rule="evenodd" d="M90 110s47.15748912 5 74.23623368 0c2.23658324-.41297765 2.58943343-4.15761166 1.5522207-6.69903417-16.15210168-39.5765631-27.22815252-74.10933927-27.22815252-101.5983285C134.11474082 3.94386364 123 2.37438889 123 2.37438889 103.08620167 30.70267617 93.93253778 63.20614466 90 110z"/>
    <path fill="rgb(221,227,233)" fill-rule="evenodd" d="M117.29317093 0c.51400757-.34637004.78544617-.5186758.78544617-.5186758L118.0493965 0h8.2990265c1.93234252 11.36487103 8.0270996 165.26258945 26.84217834 215.60597324H51.38531875c2.14802933-44.88418579 18.69633866-98.5592575 35.83890916-144.13565063-12.64977265 12.5854721-27.42295456 33.68260193-39.36236954 68.80236816l-19.06923676-4.89505005C48.22592163 51.63823414 105.16194534 8.45168495 116.20959854.74382352c.1078949-.24927627.21522522-.49722104.32199097-.74382352h.76158142z"/>
  </g>
</svg>
