<svg xmlns="http://www.w3.org/2000/svg" width="256" height="208.224" viewBox="0 0 256 208.224">
  <g transform="matrix(-1 0 0 1 256 21.22401237)">
    <path fill="rgb(178,139,103)" fill-rule="evenodd" d="M191.4562378 2.34082222l37.90377807-11.37841797q10.60647583-8.25667 20.008667-12.07377815c1.82299804-.34313011 4.84106444-.14385224 1.06962585 4.13438988-3.7714386 4.27823734-7.54600525 8.94791698-6.4691925 10.74180126 1.07679748 1.79388141 5.00015258.44158172 6.13566588 3.28320026.75698853 1.89441109-5.74308776 3.25123215-19.50027465 4.07045555l-29.47093201 17.3440876-9.67733765-16.12173843zm-3.3493805 66.82730865l31.89826965 23.42359162c8.651474 2.33448791 15.87950135 5.2389679 21.68408203 8.71346283 1.37112427 1.24939728 3.0282898 3.77965545-2.6581726 3.34236145-5.68644715-.43728638-11.6874237-.64151764-12.4720459 1.29804992-.3435669.84929657.12312317 1.7714615.6231842 2.75954438.641922 1.2684021 1.33882141 2.64546203.44728089 4.11650085q-.09751892.16090393-.23970032.2524109-2.17030335 1.39669799-14.74667358-13.37635804l-31.58764649-13.0986023 7.05142212-17.4309616z"/>
    <path fill="rgb(162,75,32)" fill-rule="evenodd" d="M138.56072852 6.08677722c17.37071801 32.389551 42.48943587 57.21845568 78.9049352 83.02909531l-13.78837608 15.5469118c-40.65937664-15.10998425-62.11835306-24.2265257-72.65635056-54.82803339-2.64482372-7.68035799-4.49330856-32.16389817-6.07908477-45.04593529l13.6188762 1.29796157z"/>
    <path fill="rgb(242,242,242)" fill-rule="evenodd" d="M90 114h77S140.83731614 34.2080716 140.2702156 4.47156148c-.01927423-1.01066401-1.88583708-2.79159676-2.71164535-2.55836776C128.5 4.47156148 118.1718001 0 118.1718001 0 99.91748497 29.35840682 93.6048263 65.50454992 90 114z"/>
    <path fill="rgb(198,90,30)" fill-rule="evenodd" d="M137.48625183 44.79075623c12.02619934 51.58634185 11.47174072 93.81521606-15.07878113 93.81521606H81.35112762C74.83043671 94.78395081 91.96809387 34.02361679 107.85595703 3.37659454 108.46266174 2.2062769 109.7544098 0 112.79699707 0h11.9297638c.00524902.01579857.01049041.03159714.01573944.04739666 3.58997344.0293951 7.54340362.1606388 11.8247757.30276966C158.6084137 1.0818758 189.3412628 2.10212898 223.92266082-9l4.07733154 20.37347984c-31.21312714 20.07474709-62.8190689 35.62558556-90.51374054 33.41727639z"/>
  </g>
</svg>
