<svg xmlns="http://www.w3.org/2000/svg" width="256" height="191.731" viewBox="0 0 256 191.731">
  <g transform="translate(0 4.73086262)">
    <path fill="rgb(178,139,103)" fill-rule="evenodd" d="M24.00457764 166.68966675c7.35775566-5.04510498 17.96072387-13.875 19.3933487-16.78140259 2.9304695-5.94514465 17.57186507-82.45858002 17.57186507-82.45858002l21.89739609.08218384S57.85055542 148.58258057 56.30793 152.40560913c-2.00392152 4.96621704 1.40001296 12.18170166 3.7081642 17.07441712.35708619.75692749.68794251 1.4582672.96849442 2.0870819-3.2026863 1.43310547-4.74114608-.29910278-6.3630867-2.12532043-1.8319397-2.06266785-3.77038192-4.24525452-8.33358383-2.12228394-1.76299667.8202057-3.43127441 1.789917-5.06117248 2.7373352-5.62995148 3.27250672-10.80194474 6.27882386-17.83771134 1.93754579-1.11542892-.68826294-2.33775902-3.27966309.61554337-5.30471802zm175.48853302-74.22933197l28.32791137 27.63502502c8.2423706 3.51581574 14.9958191 7.3979721 20.26037598 11.646492 1.18389893 1.42807007 2.47277832 4.16433716-3.09747314 2.93989564-5.57025147-1.22444153-11.48440552-2.26184082-12.53131104-.45036316-.45843506.79321289-.12463379 1.77134704.23303223 2.81944275.45916748 1.34539795.95761108 2.80603027-.12997437 4.13867187-1.28988647 1.58052063-5.62786865-3.4467926-13.01400757-15.08192444l-29.45727539-17.36727905 9.40872193-16.27996063z"/>
    <path fill="rgb(219,39,33)" fill-rule="evenodd" d="M127.69499548 5.3320284l8.6471231-1.48316787c13.62183596 48.15186274 83.61047614 80.9740953 87.90698806 98.97447858 1.57564448 6.6012163-3.17524042 9.93818196-.72115892 11.94885032l-11.23957435 8.22781172c-1.90332231-2.22066773-5.96500095 1.84145275-14.44708199-1.00000045-8.48208104-2.8414532-70.14629768-59.65210311-70.1462959-116.6679723z"/>
    <path fill="rgb(255,65,51)" fill-rule="evenodd" d="M139.24986267-2.83754945l-26.93423462-1.88342452c-2.20228576-.15399885-4.11528778 1.50894785-4.26927948 3.71123028l-.40960693 5.85764313c-16.27355957 12.5232811-56.60718918 49.94540023-67.11755371 119.60899734-1.10406113 7.31782532.89256286 11.23742676 2.48788833 14.36923218 1.09130478 2.14234924 1.99482727 3.9160614 1.58955384 6.15673828l14.70962906 4.06039429c0-4.06039429 11.16492462-5.73576355 14.04486846-16.27578736 1.6174698-5.9196167 3.9859848-13.31323242 6.81570435-21.53816223C80.43403625 122.12235546 82.49986267 132.14039898 87 140.437747c11.22733307 20.700943 76.10876465-2.00117493 82.8872757-23.1194992 3.61709594-11.26909638-1.51538086-20.73000336-8.30347443-33.24272156-8.61653137-15.88317108-19.9006958-36.6836815-19.34310913-72.34166336l.72039795-10.30212975c.1539917-2.2022829-1.50894165-4.11528396-3.71122742-4.26928258z"/>
  </g>
</svg>
