<svg xmlns="http://www.w3.org/2000/svg" width="300" height="239" viewBox="0 0 300 239">
  <g>
    <path fill="rgb(153,118,89)" fill-rule="evenodd" d="M128 0l37.63083767 123.02417087 18.22931645 104.6241329h14.2930427L178.89097407 0H128z"/>
    <path fill="rgb(178,139,103)" fill-rule="evenodd" d="M114.53772732 0c2.55597766 67.54688213-.4520627 102.38878715-1.02412107 108.52571506-.57205838 6.13692792-8.40540998 45.92909719-26.9499189 121.18275436l15.230305-5.23077018c29.30786722-69.01874063 39.29494344-104.888999 42.65633396-113.95198418C147.81171682 101.4627299 156.7394031 64.62082486 171.2333852 0h-56.69565788z"/>
    <path fill="rgb(228,228,228)" fill-rule="evenodd" d="M89.4182776 223.35225237c-1.0417975-.5344558-2.31785241-.06362848-2.76284187 1.01940863 0 0-1.65543573 4.02908051-1.65543573 6.73400982C85 233.81060014 85.90124261 239 85.90124261 239h56.4018122s2.19852474-7.26823912-2.53823196-7.84777684c-4.7367567-.57953773-7.8698085-1.04655234-7.8698085-1.04655234l-26.2150217-11.68678736c-.51456887-.22939737-1.11697575.0113584-1.33169813.5322217l-1.68508143 4.08758988s-4.38499781 2.04593567-7.12653195 2.04593567c-2.74153414 0-6.11840355-1.73237834-6.11840355-1.73237834z"/>
    <path fill="rgb(228,228,228)" fill-rule="evenodd" d="M183.4182776 223.35225237c-1.0417975-.5344558-2.31785241-.06362848-2.76284187 1.01940863 0 0-1.65543573 4.02908051-1.65543573 6.73400982C179 233.81060014 179.90124261 239 179.90124261 239h56.4018122s2.19852474-7.26823912-2.53823196-7.84777684c-4.7367567-.57953773-7.8698085-1.04655234-7.8698085-1.04655234l-26.2150217-11.68678736c-.51456887-.22939737-1.11697575.0113584-1.33169813.5322217l-1.68508143 4.08758988s-4.38499781 2.04593567-7.12653195 2.04593567c-2.74153414 0-6.11840355-1.73237834-6.11840355-1.73237834z"/>
    <path fill="rgb(105,161,172)" fill-rule="evenodd" d="M123 0l16 62.67952012h48.87031788L180.58355445 0H123z"/>
    <path fill="rgb(137,197,204)" fill-rule="evenodd" d="M114 0c-7.89684125 23.67081912-3 62.67952012-3 62.67952012h49.87031788L174.58355445 0H114z"/>
  </g>
</svg>
