<svg xmlns="http://www.w3.org/2000/svg" width="300" height="205" viewBox="0 0 300 205">
  <g transform="matrix(-1 0 0 1 300 0)">
    <path fill="rgb(153,118,89)" fill-rule="evenodd" d="M128 0l36.63083767 108.269943 17.22931645 81.29072646h17.2930427L181.89097407 0H128z"/>
    <path fill="rgb(178,139,103)" fill-rule="evenodd" d="M111.53772732 0c2.55597766 56.24567362 1.5479373 86.92359243.97587893 92.03375642-.57205838 5.110164-3.81967594 39.33461618-25.9499189 99.2423942h17.98628546c29.30786722-57.47127679 39.53896298-91.69572897 42.9003535-99.2423942C150.81171682 84.4870912 160.7394031 53.8091724 175.2333852 0h-63.69565788z"/>
    <path fill="rgb(105,130,172)" fill-rule="evenodd" d="M127.21363868 0c9.52825215 37.255984 26.00804476 96.72599795 49.43937784 178.41004184h25.2930427C203.81423885 94.56918302 195.86709002 39.387872 182.10461276 0h-54.89097408z"/>
    <path fill="rgb(137,158,204)" fill-rule="evenodd" d="M111.40991872 0c2.50324575 56.24567362-3.98407433 111.65831546-24.07941092 179.28575876h26.98628545C143.67854142 122.67222256 164.72305197 67.53302176 179.1055766 0h-67.69565788z"/>
    <path fill="rgb(25,24,71)" fill-rule="evenodd" d="M84 202.42677824l.99242267-13.72384937c8.71574285 2.18649883 21.83329875-1.71548117 21.83329875-1.71548117 14.82322684 9.00627615 35.31413548 11.69385701 35.31413548 11.69385701 1.24447025.16322431 2.03278837 1.41905742 1.63883924 2.61075892L142.55293754 205h-56.5680922L84 202.42677824z"/>
    <path fill="rgb(25,24,71)" fill-rule="evenodd" d="M178 202.42677824l.99242267-13.72384937c8.71574285 2.18649883 21.83329875-1.71548117 21.83329875-1.71548117 14.82322684 9.00627615 35.31413548 11.69385701 35.31413548 11.69385701 1.24447025.16322431 2.03278837 1.41905742 1.63883924 2.61075892L236.55293754 205h-56.5680922L178 202.42677824z"/>
  </g>
</svg>
