<svg xmlns="http://www.w3.org/2000/svg" width="256" height="295.606" viewBox="0 0 256 295.606">
  <g>
    <g transform="translate(62)">
      <path fill="rgb(178,139,103)" fill-rule="evenodd" d="M92.14334106 40.13393307c5.79481125 10.8011217 5.1062355 38.1990633-2.38304138 40.12952518-2.9867134.76986695-9.34929657-1.1159935-15.82492256-5.01914596L78 104H54l8.26227379-38.50987244c-4.60790944-5.40875053-7.72663903-12.03725052-7.2054975-19.464674 1.50155377-21.40047406 31.29175353-16.69264244 37.08656477-5.8915205z"/>
      <path fill="rgb(25,24,71)" fill-rule="evenodd" d="M82.66349505 28.36997631c-3.27944161-1-8.04003857-1.33913202-10.04268019-1.10971207 1.1391938-2.7294203 1.5912427-5.77032292 1.22271376-8.73117845-.3581942-2.87701972-1.64375844-5.32671857-2.83271207-7.89370696-.54804707-1.18321365-1.16912626-2.3599784-2.09511835-3.26500222-.9432932-.92203283-2.13737592-1.53064865-3.38948625-1.8210108-1.2813538-.29721411-2.62119454-.27246642-3.90453873-.00274079-.56772134.11930483-1.07710886.37887343-1.63388304.52316778-.57017105.14784125-.84675913-.20902528-1.26060778-.56766525-.99734002-.86415386-2.45943682-1.29074922-3.72119291-1.44342715-1.41562878-.17121854-2.88453885.04232097-4.23463776.5076904-1.31411874.45303588-2.5765638 1.18869522-3.52667027 2.26042335-.42303508.47705808-.80702783 1.02005625-1.0565925 1.619563-.10235213.24602589-.11927047.39177124-.3647778.48189475-.22705791.08343276-.49262228.0858511-.72695278.1652533-2.26583283.76742022-4.2030977 2.5181379-5.25792945 4.7659859-.61541422 1.31138572-.90693025 3.6202725-.82708487 6.20815522.07984538 2.58788272 2.41656682 9.3404072 4.60209494 11.80340693 1.95081485 2.19843321 4.81828225 3.649196 7.58561757 4.28425235-1.83682657 2.09952307-3.05954033 4.72310064-3.96371465 7.39133691-.98210586 2.89838173-1.58994128 5.90994181-1.81439637 8.97841352-.21320172 2.91539072-.23295254 5.9984531.45051781 8.85161184.6393755 2.66815566 2.00669896 4.85699612 4.28929702 6.24560754 1.04556878.6361043 2.17052362 1.11396849 3.30198552 1.55072088 1.11507942.4303841 2.23352721.8488377 3.40158172 1.09034936 2.21063769.45690523 4.75780492.37847037 6.46066272-1.38111456.61373004-.63433086 1.28870295-1.43141606 1.73646483-2.20633314.16099218-.2786735.25806212-.4609358.06246772-.7333216-.2343305-.32623421-.61334727-.57621006-.91435594-.83142565-1.7165609-1.4551158-2.77912457-3.39768854-3.04698555-5.70623689-.2717652-2.3423245.35742866-5.36565385 2.63474452-6.3878866 2.81112397-1.26189035 5.9069507.1865347 8.4055064 1.5366945 1.0618747-3.7477837 3.24219717-7.12225617 6.66054412-8.8413742 3.78182335-1.901864 8.12141607-2.12443198 12.0078116-3.7562479 1.0127273-.42522496 2.04421022-.90792583 2.78984208-1.7743368.31157306-.36210627.6771164-.8318287.80151597-1.31074084.16344189-.62909112-.24229208-1.1565313-.55570243-1.64697086-1.66182509-2.6004421-7.963907-7.8540948-11.24334861-8.8540948z"/>
    </g>
    <g transform="translate(0 80)">
      <path fill="rgb(178,139,103)" fill-rule="evenodd" d="M6.8242693 155.20285034c7.98829555-3.97201538 19.71695804-11.24031067 21.5401411-13.91906738 3.72934723-5.47943115 25.30272865-63.74786377 25.30272865-63.74786377l17.71178437 2.57221985s-28.51804352 61.87428284-30.57772065 65.44541931c-2.67558288 4.6389923-.30898285 12.25801086 1.295784 17.42436218.24826813.79924011.47829437 1.53979492.66860199 2.20152283-3.37097168.97343445-4.65338135-.95603943-6.00537872-2.99021912-1.5270443-2.29754638-3.14286232-4.72865295-7.95711136-3.26142883-1.85998535.56686401-3.6469841 1.29496765-5.39286804 2.00630188-6.03061104 2.45713806-11.570673 4.71440125-17.93378544-.56382751-1.00878859-.836792-1.85856843-3.5730896 1.3478241-5.16741944zM190.35887336 88.6100235l30.18663025 25.59165192c8.46754455 2.93228912 15.4753418 6.33389282 21.02340698 10.20483398 1.2806549 1.3420105 2.75727844 3.98168945-2.88482666 3.14880371-5.6421051-.832901-11.61419678-1.45523071-12.5322113.42487335-.40197754.82326508-.00076294 1.7757187.4291687 2.7963028.55187988 1.3100891 1.15103149 2.73240661.15904235 4.1376648-1.17651367 1.66664123-5.85462951-3.0458069-14.0343933-14.13737489l-30.59698487-15.27013397 8.25016785-16.8966217z"/>
      <path fill="rgb(197,207,214)" fill-rule="evenodd" d="M127.6949954 5.33202858l10.97493636-3.62939221c14.88754145 37.19023143 37.0905734 73.17368846 74.18720244 103.56755203l-9.17353002 15.82659214c-32.60266862-19.2051257-63.46507532-34.12400926-75.98861043-62.94208946-4.20322213-9.67209269-.34294615-41.25772241.00000165-52.8226625z"/>
      <path fill="rgb(50,51,55)" fill-rule="evenodd" d="M90 110s47.15748912 5 74.23623368 0c2.23658324-.41297765 2.58943343-4.15761166 1.5522207-6.69903417-16.15210168-39.5765631-27.22815252-74.10933927-27.22815252-101.5983285C134.11474082 3.94386364 123 2.37438889 123 2.37438889 103.08620167 30.70267617 93.93253778 63.20614466 90 110z"/>
      <path fill="rgb(221,227,233)" fill-rule="evenodd" d="M117.29317093 0c.51400757-.34637004.78544617-.5186758.78544617-.5186758L118.0493965 0h8.2990265c1.93234252 11.36487103 8.0270996 165.26258945 26.84217834 215.60597324H51.38531875c2.14802933-44.88418579 18.69633866-98.5592575 35.83890916-144.13565063-12.64977265 12.5854721-27.42295456 33.68260193-39.36236954 68.80236816l-19.06923676-4.89505005C48.22592163 51.63823414 105.16194534 8.45168495 116.20959854.74382352c.1078949-.24927627.21522522-.49722104.32199097-.74382352h.76158142z"/>
    </g>
  </g>
</svg>
