<svg xmlns="http://www.w3.org/2000/svg" width="136" height="104" viewBox="0 0 136 104">
  <g>
    <path fill="rgb(178,139,103)" fill-rule="evenodd" d="M92.14334106 40.13393307c5.79481125 10.8011217 5.1062355 38.1990633-2.38304138 40.12952518-2.9867134.76986695-9.34929657-1.1159935-15.82492256-5.01914596L78 104H54l8.26227379-38.50987244c-4.60790944-5.40875053-7.72663903-12.03725052-7.2054975-19.464674 1.50155377-21.40047406 31.29175353-16.69264244 37.08656477-5.8915205z"/>
    <path fill="rgb(25,24,71)" fill-rule="evenodd" d="M82.66349505 28.36997631c-3.27944161-1-8.04003857-1.33913202-10.04268019-1.10971207 1.1391938-2.7294203 1.5912427-5.77032292 1.22271376-8.73117845-.3581942-2.87701972-1.64375844-5.32671857-2.83271207-7.89370696-.54804707-1.18321365-1.16912626-2.3599784-2.09511835-3.26500222-.9432932-.92203283-2.13737592-1.53064865-3.38948625-1.8210108-1.2813538-.29721411-2.62119454-.27246642-3.90453873-.00274079-.56772134.11930483-1.07710886.37887343-1.63388304.52316778-.57017105.14784125-.84675913-.20902528-1.26060778-.56766525-.99734002-.86415386-2.45943682-1.29074922-3.72119291-1.44342715-1.41562878-.17121854-2.88453885.04232097-4.23463776.5076904-1.31411874.45303588-2.5765638 1.18869522-3.52667027 2.26042335-.42303508.47705808-.80702783 1.02005625-1.0565925 1.619563-.10235213.24602589-.11927047.39177124-.3647778.48189475-.22705791.08343276-.49262228.0858511-.72695278.1652533-2.26583283.76742022-4.2030977 2.5181379-5.25792945 4.7659859-.61541422 1.31138572-.90693025 3.6202725-.82708487 6.20815522.07984538 2.58788272 2.41656682 9.3404072 4.60209494 11.80340693 1.95081485 2.19843321 4.81828225 3.649196 7.58561757 4.28425235-1.83682657 2.09952307-3.05954033 4.72310064-3.96371465 7.39133691-.98210586 2.89838173-1.58994128 5.90994181-1.81439637 8.97841352-.21320172 2.91539072-.23295254 5.9984531.45051781 8.85161184.6393755 2.66815566 2.00669896 4.85699612 4.28929702 6.24560754 1.04556878.6361043 2.17052362 1.11396849 3.30198552 1.55072088 1.11507942.4303841 2.23352721.8488377 3.40158172 1.09034936 2.21063769.45690523 4.75780492.37847037 6.46066272-1.38111456.61373004-.63433086 1.28870295-1.43141606 1.73646483-2.20633314.16099218-.2786735.25806212-.4609358.06246772-.7333216-.2343305-.32623421-.61334727-.57621006-.91435594-.83142565-1.7165609-1.4551158-2.77912457-3.39768854-3.04698555-5.70623689-.2717652-2.3423245.35742866-5.36565385 2.63474452-6.3878866 2.81112397-1.26189035 5.9069507.1865347 8.4055064 1.5366945 1.0618747-3.7477837 3.24219717-7.12225617 6.66054412-8.8413742 3.78182335-1.901864 8.12141607-2.12443198 12.0078116-3.7562479 1.0127273-.42522496 2.04421022-.90792583 2.78984208-1.7743368.31157306-.36210627.6771164-.8318287.80151597-1.31074084.16344189-.62909112-.24229208-1.1565313-.55570243-1.64697086-1.66182509-2.6004421-7.963907-7.8540948-11.24334861-8.8540948z"/>
  </g>
</svg>
