<svg xmlns="http://www.w3.org/2000/svg" width="136" height="104" viewBox="0 0 136 104">
  <g transform="matrix(-1 0 0 1 136 0)">
    <path fill="rgb(25,24,71)" fill-rule="evenodd" d="M61 77.70685879c11.4289379 0 15.5854974-13.68277498 22.0786187-21.19151052C87.72431383 51.14300196 95.65307946 52.74494419 98 45.22377622 103.9015425 26.31112374 88.10610862 13 67.5 13S33 24.67425243 30 42.22377622C27 59.77330002 40.39389138 77.7068588 61 77.7068588z"/>
    <path fill="rgb(178,139,103)" fill-rule="evenodd" d="M92.14334106 40.13393307c5.79481125 10.8011217 5.1062355 38.1990633-2.38304138 40.12952518-2.9867134.76986695-9.34929657-1.1159935-15.82492256-5.01914596L78 104H54l8.26227379-38.50987244c-4.60790944-5.40875053-7.72663903-12.03725052-7.2054975-19.464674 1.50155377-21.40047406 31.29175353-16.69264244 37.08656477-5.8915205z"/>
    <path fill="rgb(25,24,71)" fill-rule="evenodd" d="M56.61679077 31c-18.38320923 18 .07024384 37.131773 5.12644959 37.131773.3263893-2.5974579 1.3222351-5.12409974 2.78132629-7.52886963-.77498245-1.00357056-1.23452377-2.2513504-1.23452377-3.60290528C63.29004288 53.6885109 66.04873658 51 69.44667053 51c1.06136322 0 2.06035614.26231003 2.9323883.72397614 7.37019349-6.28578568 16.6142273-10.6678238 21.20410157-11.52944947C101.56601715 38.695961 75 13.00000095 56.61679077 31z"/>
  </g>
</svg>
